<svg width="554" height="500" viewBox="0 0 554 500" fill="none" xmlns="http://www.w3.org/2000/svg">
<path d="M481.734 274.316C462.415 271.823 452.487 273.58 438.234 270.563C432.264 269.299 426.505 267.296 420.519 266.095C413.934 264.773 406.487 264.419 400.349 267.328C396.018 269.38 391.965 271.907 388.136 274.648C374.565 284.364 363.242 297.147 356.226 311.471C341.812 340.902 336.426 379.99 352.458 386.971C357.765 389.282 415.188 404.133 435.59 403.107C477.881 401.91 519.195 293.097 493.782 278.146C490.754 276.364 486.633 274.948 481.734 274.316Z" fill="#F55571"/>
<path d="M492.508 278.503C482.761 275.089 468.531 283.06 455.702 296.669" stroke="#303030" stroke-width="2" stroke-miterlimit="10" stroke-linecap="round" stroke-linejoin="round"/>
<path d="M442.442 313.643C439.817 317.689 437.39 321.931 435.25 326.301C420.836 355.732 415.278 395.072 431.638 401.405" stroke="#303030" stroke-width="2" stroke-miterlimit="10" stroke-linecap="round" stroke-linejoin="round"/>
<path d="M450.463 304.628C450.463 305.413 449.759 306.049 448.889 306.049C448.02 306.049 447.316 305.413 447.316 304.628C447.316 303.843 448.02 303.207 448.889 303.207C449.759 303.207 450.463 303.843 450.463 304.628Z" fill="#303030"/>
<path d="M163.712 335.346C167.156 329.632 192.889 292.897 203.236 277.237C219.583 252.498 246.013 256.564 270.341 277.532C282.634 288.127 301.328 307.598 317.278 323.048L328.17 314.422L356.665 345.99C343.416 363.586 328.2 381.784 307.141 378.423C276.141 373.475 234.178 316.33 234.178 316.33C234.178 316.33 228.811 323.148 223.654 326.939C215.15 333.191 196.85 346.381 190.989 352.608C185.127 358.835 181.127 364.937 179.333 371.446C178.632 373.988 178.285 381.335 176.468 384.723C174.24 388.877 170.648 390.239 164.488 390.154C159.265 390.082 147.638 387.33 139.646 388.215C137.472 388.456 135.117 388.594 133.012 389.062C130.486 389.624 127.968 390.191 125.42 390.666C122.27 391.254 119.039 391.752 115.848 391.389C112.637 391.024 109.594 389.8 106.373 389.516C103.39 389.253 100.55 390.145 97.0278 389.113C95.874 388.775 94.7413 388.232 93.9319 387.399C93.4923 386.947 93.1723 386.426 92.9819 385.85C92.8158 385.349 92.7471 384.8 92.7726 384.314C91.868 384.203 91.0397 383.788 90.3809 382.525C89.8671 381.539 90.2015 380.541 90.7097 379.553C89.5648 378.963 89.1618 377.589 89.6434 376.481C90.1262 375.373 91.332 374.786 92.6264 374.558C91.8613 373.074 93.0417 372.05 94.1899 371.608C96.5462 370.7 99.0154 370.089 101.063 369.49C109.654 366.979 113.806 366.076 125.048 362.278C131.099 360.234 147.217 355.171 151.766 350.952C156.48 346.578 160.268 341.059 163.712 335.346Z" fill="#FFCCCC"/>
<path d="M105.849 379.266C103.408 380.554 100.787 379.694 98.072 379.955C96.4731 380.109 94.9074 380.588 94.1146 381.307C93.2498 382.091 92.7859 383.167 92.7715 384.313" stroke="#303030" stroke-width="1.5" stroke-miterlimit="10" stroke-linecap="round" stroke-linejoin="round"/>
<path d="M99.0564 376.03C96.0944 377.385 93.3694 376.77 91.1815 378.921" stroke="#303030" stroke-width="1.5" stroke-miterlimit="10" stroke-linecap="round" stroke-linejoin="round"/>
<path d="M97.5239 373.3C96.4288 373.755 94.2652 373.971 93.251 374.204" stroke="#303030" stroke-width="1.5" stroke-miterlimit="10" stroke-linecap="round" stroke-linejoin="round"/>
<path d="M186.539 370.1C187.236 367.01 188.447 364.893 188.76 362.096C189.184 358.289 186.958 357.54 186.958 357.54L183.093 361.723C183.093 361.723 180.824 363.638 175.26 363.45C169.653 363.261 166.44 359.243 164.184 357.348C162.969 356.328 161.685 355.273 160.08 354.894C158.394 354.495 156.645 354.907 154.986 355.461C150.803 349.044 141.189 347.944 137.073 350.613C133.912 352.663 120.08 361.27 112.433 364.634C105.832 367.538 101.503 368.721 94.0293 369.986C81.7464 372.064 78.1013 375.061 77.0759 382.455C76.8434 384.132 80.7122 388.334 86.0891 388.688C91.4649 389.042 105.252 389.95 114.154 390.536C114.154 390.536 156.107 393.298 168.524 394.116C178.177 394.752 184.507 394.132 185.867 388.586C187.103 373.259 185.526 374.597 186.539 370.1Z" fill="#00826F"/>
<path d="M77.0759 382.454C78.1013 375.06 81.7464 372.064 94.0293 369.985C101.502 368.721 105.832 367.538 112.433 364.633C117.108 362.576 123.442 358.952 128.888 355.673" stroke="#303030" stroke-width="1.5" stroke-miterlimit="10" stroke-linecap="round" stroke-linejoin="round"/>
<path d="M121.701 375.207C118.4 370.73 110.945 366.202 103.928 367.815" stroke="#303030" stroke-width="1.5" stroke-miterlimit="10" stroke-linecap="round" stroke-linejoin="round"/>
<path d="M115.97 362.94C119.1 364.764 120.762 366.937 122.705 370.395" stroke="#303030" stroke-width="1.5" stroke-miterlimit="10" stroke-linecap="round" stroke-linejoin="round"/>
<path d="M112.432 364.634C116.639 364.746 122.482 366.228 132.372 368.411" stroke="#303030" stroke-width="1.5" stroke-miterlimit="10" stroke-linecap="round" stroke-linejoin="round"/>
<path d="M124.64 358.497C127.77 360.321 129.181 362.052 131.124 365.51" stroke="#303030" stroke-width="1.5" stroke-miterlimit="10" stroke-linecap="round" stroke-linejoin="round"/>
<path d="M121.103 360.191C125.31 360.303 131.153 361.785 141.043 363.968" stroke="#303030" stroke-width="1.5" stroke-miterlimit="10" stroke-linecap="round" stroke-linejoin="round"/>
<path d="M133.2 353.245C136.33 355.069 138.103 358.052 140.046 361.51" stroke="#303030" stroke-width="1.5" stroke-miterlimit="10" stroke-linecap="round" stroke-linejoin="round"/>
<path d="M129.773 355.748C133.98 355.86 139.823 357.342 149.713 359.525" stroke="#303030" stroke-width="1.5" stroke-miterlimit="10" stroke-linecap="round" stroke-linejoin="round"/>
<path d="M185.867 371.051C184.832 372.184 183.565 373.111 181.994 373.717C178.851 374.929 175.18 374.978 171.999 373.849C166.987 372.071 163.377 367.614 158.117 366.571C154.291 365.812 150.352 367.026 146.718 368.346C140.002 370.784 129.399 375.461 127.941 377.189C126.482 378.917 124.954 384.52 123.483 389.919" stroke="#303030" stroke-width="1.5" stroke-miterlimit="10" stroke-linecap="round" stroke-linejoin="round"/>
<path d="M79.8585 393.937C84.5434 395.415 110.966 396.989 110.966 396.989C110.966 396.989 154.886 399.881 164.933 400.542C174.98 401.204 180.35 401.268 183.17 398.234C184.832 396.445 185.909 393.466 185.866 388.585C181.424 391.637 182.415 392.65 165.249 391.52C148.083 390.39 106.181 387.751 97.091 387.032C90.7596 386.532 80.8484 386.653 77.076 382.454C75.4306 384.162 72.7133 391.682 79.8585 393.937Z" fill="white" stroke="#303030" stroke-width="1.5" stroke-miterlimit="10" stroke-linecap="round" stroke-linejoin="round"/>
<path d="M225.088 348.522C202.533 353.839 175.738 360.204 151.599 363.628C133.127 366.248 115.072 366.593 98.5846 359.713C92.3817 357.125 86.2308 354.325 80.8229 350.554C77.5487 348.271 74.5635 345.643 71.121 343.572C68.9763 342.282 66.4705 341.184 63.9183 341.506C61.118 341.86 58.8348 343.942 57.8947 346.35C56.9546 348.758 57.1838 351.427 57.908 353.896C59.8324 360.456 64.9602 365.782 69.6107 371.112C74.3 376.486 78.6638 382.132 81.9989 388.276C85.0306 393.86 87.1886 399.809 90.3344 405.341C93.8754 411.567 99.961 419.753 108.835 419.214C110.469 419.115 112.038 418.617 113.568 418.09C120.07 415.852 124.111 411.118 129.628 407.495C133.758 404.783 139.544 402.004 139.544 402.004C150.045 401.053 162.195 400.694 168.409 400.404C188.957 399.446 214.154 397.571 214.154 397.571L225.088 348.522Z" fill="#FFCCCC"/>
<path d="M70.5253 370.381C65.732 363.581 58.3077 353.05 55.4133 348.943C52.5178 344.836 53.9406 339.525 55.5694 338.692C62.7501 335.021 67.5877 335.873 76.7659 343.532C82.3499 348.192 85.985 350.622 92.5068 353.672C100.061 357.204 115.963 362.088 119.671 363.155C124.501 364.544 129.264 372.169 126.056 379.031L70.5253 370.381Z" fill="#00826F"/>
<path d="M55.5695 338.693C62.7501 335.022 67.5878 335.874 76.7659 343.533C82.3499 348.193 85.985 350.623 92.5069 353.673C97.1253 355.833 104.124 358.258 110.29 360.247" stroke="#303030" stroke-width="1.5" stroke-miterlimit="10" stroke-linecap="round" stroke-linejoin="round"/>
<path d="M70.5253 370.381C74.6521 368.633 82.289 365.704 86.501 364.132C87.5142 363.754 88.5771 363.374 89.67 363.45C90.2956 363.494 90.8947 363.685 91.4837 363.877C103.229 367.71 114.538 372.627 125.18 378.527C126.957 379.512 128.82 380.634 129.6 382.38C130.222 383.769 130.05 385.329 129.869 386.818C129.534 389.584 127.471 394.591 131.061 398.486C133.895 401.562 137.627 402.148 137.627 402.148L143.541 401.673C143.541 401.673 143.957 405.494 140.322 407.459C137.651 408.903 135.048 409.288 131.887 410.629C127.288 412.578 129.418 412.923 115.065 421.175C109.326 423.5 104.998 419.284 99.8004 411.91C93.1158 402.427 70.5253 370.381 70.5253 370.381Z" fill="#00826F"/>
<path d="M88.6458 366.7C90.6522 361.635 90.2248 353.531 84.6021 349.41" stroke="#303030" stroke-width="1.5" stroke-miterlimit="10" stroke-linecap="round" stroke-linejoin="round"/>
<path d="M96.1221 355.224C96.3712 358.581 95.4323 361.082 93.52 364.554" stroke="#303030" stroke-width="1.5" stroke-miterlimit="10" stroke-linecap="round" stroke-linejoin="round"/>
<path d="M92.5068 353.672C94.9185 356.786 97.0909 361.905 101.055 370.374" stroke="#303030" stroke-width="1.5" stroke-miterlimit="10" stroke-linecap="round" stroke-linejoin="round"/>
<path d="M105.245 358.854C105.493 362.211 104.798 364.266 102.885 367.739" stroke="#303030" stroke-width="1.5" stroke-miterlimit="10" stroke-linecap="round" stroke-linejoin="round"/>
<path d="M101.629 357.303C104.04 360.417 106.213 365.536 110.176 374.005" stroke="#303030" stroke-width="1.5" stroke-miterlimit="10" stroke-linecap="round" stroke-linejoin="round"/>
<path d="M115.021 361.921C115.27 365.278 113.678 368.343 111.767 371.815" stroke="#303030" stroke-width="1.5" stroke-miterlimit="10" stroke-linecap="round" stroke-linejoin="round"/>
<path d="M110.751 360.933C113.163 364.047 115.335 369.166 119.299 377.635" stroke="#303030" stroke-width="1.5" stroke-miterlimit="10" stroke-linecap="round" stroke-linejoin="round"/>
<path d="M130.645 410.71C129.02 410.636 127.44 410.272 125.964 409.495C123.011 407.941 120.777 405.31 119.88 402.331C118.467 397.638 120.271 392.362 118.058 387.929C116.448 384.704 113.019 382.575 109.677 380.729C103.503 377.319 93.0184 372.428 90.6123 372.403C88.2062 372.378 82.3178 374.616 76.6419 376.773" stroke="#303030" stroke-width="1.5" stroke-miterlimit="10" stroke-linecap="round" stroke-linejoin="round"/>
<path d="M47.0302 347.564C48.5139 351.841 62.8896 371.925 62.8896 371.925C62.8896 371.925 86.5398 405.474 91.9488 413.148C97.3589 420.822 100.507 424.752 104.886 424.983C107.467 425.12 110.758 424.121 115.067 421.176C109.705 419.779 109.395 421.102 100.153 407.99C90.9091 394.878 68.2388 362.942 63.451 355.927C60.1159 351.041 54.0924 343.932 55.5695 338.693C53.0704 338.521 44.768 341.041 47.0302 347.564Z" fill="white" stroke="#303030" stroke-width="1.5" stroke-miterlimit="10" stroke-linecap="round" stroke-linejoin="round"/>
<path d="M328.17 314.422L325.267 315.817C325.267 315.817 277.16 278.623 260.25 266.318C243.65 254.238 222.435 251.686 206.416 268.991C197.744 278.359 164.093 330.617 164.093 330.617C164.955 337.861 185.743 352.465 194.959 353.041C205.299 345.124 223.796 328.703 232.179 318.861C241.184 329.161 271.054 366.378 291.447 374.61L346.146 334.339L328.17 314.422Z" fill="white" stroke="#303030" stroke-width="1.5" stroke-miterlimit="10" stroke-linecap="round" stroke-linejoin="round"/>
<path d="M240.492 297.361L288.434 337.584" stroke="#303030" stroke-width="1.5" stroke-miterlimit="10" stroke-linecap="round" stroke-linejoin="round"/>
<path d="M239.465 291.907C238.432 301.15 223.363 320.084 195.529 343.675" stroke="#303030" stroke-width="1.5" stroke-miterlimit="10" stroke-linecap="round" stroke-linejoin="round"/>
<path d="M168.941 322.423C174.664 331.505 183.285 339.08 193.686 343.711C196.654 345.033 199.751 346.115 202.931 346.943C203.96 347.211 204.4 345.764 203.373 345.497C192.486 342.663 182.837 336.71 175.718 328.771C173.721 326.543 171.945 324.157 170.374 321.666C169.845 320.828 168.41 321.582 168.941 322.423Z" fill="#303030"/>
<path d="M234.878 320.018C238.319 312.338 242.547 300.811 239.465 291.907" stroke="#303030" stroke-width="1.5" stroke-miterlimit="10" stroke-linecap="round" stroke-linejoin="round"/>
<path fill-rule="evenodd" clip-rule="evenodd" d="M240.492 297.361C238.694 309.973 234.388 314.75 231.484 318.424C231.484 318.424 233.809 321.351 235.943 323.85C240.981 314.59 241.442 305.37 240.492 297.361Z" fill="#303030"/>
<path d="M328.216 285.466L422.985 291.706C427.126 318.55 439.615 362.56 423.052 387.551C409.885 407.419 385.489 413.764 340.347 406.191C323.014 403.283 278.988 396.558 278.988 396.558L159.391 401.909C149.339 391.623 149.578 373.348 152.496 362.393C152.496 362.393 213.855 347.467 241.476 342.388C261.504 338.705 290.925 337.978 309.177 336.505C318.465 335.755 321.485 334.212 329.77 328.022" fill="white"/>
<path d="M328.216 285.466L422.985 291.706C427.126 318.55 439.615 362.56 423.052 387.551C409.885 407.419 385.489 413.764 340.347 406.191C323.014 403.283 278.988 396.558 278.988 396.558L159.391 401.909C149.339 391.623 149.578 373.348 152.496 362.393C152.496 362.393 213.855 347.467 241.476 342.388C261.504 338.705 290.925 337.978 309.177 336.505C318.465 335.755 321.485 334.212 329.77 328.022" stroke="#303030" stroke-width="1.5" stroke-miterlimit="10" stroke-linecap="round" stroke-linejoin="round"/>
<path d="M409.339 326.215C410.592 347.209 415.663 359.234 401.983 373.657C393.752 382.336 381.691 384.829 359.567 383.372C332.242 381.573 306.607 374.223 279.22 373.521C261.379 373.064 243.547 374.86 225.846 376.928C199.458 380.013 162.529 383.631 162.529 383.631" stroke="#303030" stroke-width="1.5" stroke-miterlimit="10" stroke-linecap="round" stroke-linejoin="round"/>
<path d="M163.386 359.507C159.932 370.456 160.035 382.624 164.452 393.343C165.675 396.311 167.226 399.163 169.138 401.819C169.718 402.625 171.156 401.875 170.572 401.062C163.835 391.701 161.698 380.088 162.996 369.103C163.363 365.992 164.039 362.914 164.988 359.906C165.281 358.976 163.679 358.579 163.386 359.507Z" fill="#303030"/>
<path d="M354.206 206.007C341.192 206.908 325.968 212.743 311.185 239.464C296.402 266.185 291.407 275.016 291.407 275.016L347.684 286.788L354.206 206.007Z" fill="#00826F"/>
<path d="M277.332 220.479C273.953 217.486 271.376 215.565 267.858 214.915C264.339 214.266 263.233 213.717 261.096 215.893C259.315 214.913 254.914 216.696 253.942 218.767C252.97 220.838 252.88 223.886 252.88 223.886C252.88 223.886 251.58 224.388 250.503 225.271C249.426 226.154 249.733 229.475 250.407 230.473C251.081 231.471 252.516 232.383 252.365 232.373C252.216 232.363 251.237 233.271 251.256 234.285C251.275 235.299 251.331 235.848 252.813 236.809C254.294 237.77 256.647 239.151 257.873 238.914C259.803 241.176 259.458 246.084 266.431 248.178C273.405 250.272 284.534 250.82 284.534 250.82L277.332 220.479Z" fill="#FFCCCC"/>
<path d="M296.649 210.041C298.525 210.682 299.346 211.884 299.267 213.563C299.246 214.006 298.976 214.411 298.571 214.662L297.439 215.364L294.003 210.9L295.137 210.196C295.58 209.921 296.146 209.869 296.649 210.041Z" fill="#00826F" stroke="#00826F" stroke-width="1.5" stroke-miterlimit="10"/>
<path d="M254.937 235.471C255.01 237.403 256.032 238.746 258.003 239.5C258.212 239.58 258.456 239.551 258.643 239.435L297.437 215.365C297.842 215.114 298.112 214.709 298.134 214.266C298.212 212.587 297.392 211.385 295.515 210.744C295.012 210.572 294.447 210.624 294.005 210.899L255.235 234.955C255.046 235.071 254.929 235.266 254.937 235.471Z" fill="#303030" stroke="#303030" stroke-width="1.5" stroke-miterlimit="10"/>
<path d="M292.645 212.873L259.695 233.248" stroke="white" stroke-width="1.5" stroke-miterlimit="10" stroke-linecap="round" stroke-linejoin="round"/>
<path d="M256.269 235.024C258.02 235.706 258.846 236.896 258.938 238.491C258.963 238.925 258.653 239.318 258.183 239.417L252.243 240.671C251.756 240.774 251.383 240.284 251.663 239.91L255.092 235.349C255.35 235.005 255.846 234.86 256.269 235.024Z" fill="white" stroke="#303030" stroke-width="1.5" stroke-miterlimit="10"/>
<path d="M254.358 237.721C254.145 237.534 253.918 237.372 253.684 237.221L251.663 239.911C251.381 240.285 251.754 240.775 252.242 240.672L255.832 239.914C255.563 239.107 255.072 238.35 254.358 237.721Z" fill="#303030" stroke="#303030" stroke-width="1.5" stroke-miterlimit="10"/>
<path d="M282.765 225.501L277.967 228.47C277.967 228.47 274.523 230.455 271.48 230.377C268.438 230.299 263.732 231.303 261.387 232.471C259.205 233.558 259.905 236.558 263.519 237.272C267.109 237.981 269.693 236.986 271.288 237.783C272.184 238.231 268.864 246.069 273.611 249.381C269.329 249.099 268.666 248.768 265.439 247.841C271.143 250.519 270.971 256.936 270.971 256.936L294.564 258.49C294.564 258.49 289.471 243.373 288.486 239.636C287.5 235.9 286.471 230.426 282.765 225.501Z" fill="#FFCCCC"/>
<path d="M277.486 220.135C274.493 216.848 271.738 214.311 268.761 213.475C265.332 212.513 263.233 213.717 261.096 215.893C259.315 214.913 254.915 216.696 253.942 218.767C252.97 220.838 252.88 223.886 252.88 223.886C252.88 223.886 251.581 224.388 250.503 225.271C249.426 226.154 249.696 229.496 250.407 230.473C252.116 232.822 253.939 234.322 255.753 234.905C256.915 235.279 259.008 234.436 258.784 232.985C260.989 233.814 264.253 233.174 263.065 229.404C261.877 225.634 261.275 225.115 261.766 222.31C261.766 222.31 264.267 227.91 265.388 229.488C266.51 231.066 268.388 231.724 269.499 231.547C270.611 231.37 271.6 230.375 271.64 228.942C271.68 227.509 270.81 224.209 270.81 224.209L277.486 220.135Z" fill="#FFCCCC"/>
<path d="M270.448 217.352C270.133 218.359 269.337 219.323 269.478 220.443C269.544 220.958 269.744 221.446 269.936 221.931C270.172 222.528 270.402 223.126 270.592 223.737C270.882 224.665 272.486 224.27 272.194 223.338C272.015 222.768 271.804 222.208 271.583 221.65C271.413 221.219 271.209 220.776 271.123 220.322C271.142 220.419 271.117 220.188 271.118 220.143C271.118 220.146 271.136 219.94 271.124 220.029C271.112 220.109 271.138 219.968 271.143 219.954C271.191 219.771 271.299 219.495 271.351 219.383C271.433 219.206 271.598 218.876 271.705 218.642C271.839 218.351 271.955 218.055 272.051 217.751C272.342 216.82 270.74 216.423 270.448 217.352Z" fill="#303030"/>
<path d="M273.501 219.76C273.346 219.848 273.186 219.93 273.021 220.002C272.948 220.034 272.862 220.058 272.794 220.096C272.974 219.996 272.874 220.065 272.807 220.088C272.768 220.102 272.729 220.115 272.69 220.127C272.351 220.236 272.002 220.311 271.647 220.357C271.72 220.348 271.794 220.339 271.867 220.33C271.602 220.361 271.335 220.375 271.069 220.37C270.633 220.363 270.218 220.72 270.238 221.12C270.258 221.533 270.602 221.862 271.069 221.87C272.213 221.889 273.368 221.602 274.339 221.053C274.707 220.845 274.885 220.375 274.637 220.027C274.399 219.696 273.894 219.537 273.501 219.76Z" fill="#303030"/>
<path d="M251.586 224.39C252.059 226.422 252.831 228.428 254.194 230.12C255.352 231.558 256.821 232.718 258.305 233.872C259.111 234.5 260.29 233.443 259.48 232.811C258.117 231.75 256.695 230.685 255.629 229.362C254.34 227.762 253.636 225.913 253.188 223.991C252.968 223.047 251.366 223.447 251.586 224.39Z" fill="#303030"/>
<path d="M260.534 215.081C259.943 216.569 259.846 218.178 259.929 219.745C260.001 221.115 260.277 222.364 260.906 223.614C261.674 225.143 262.535 226.635 263.383 228.129C264.12 229.428 264.951 231.034 266.592 231.554C267.603 231.874 268.037 230.426 267.034 230.108C266.448 229.922 266.003 229.287 265.689 228.838C265.243 228.2 264.893 227.507 264.512 226.837C263.765 225.523 263.014 224.204 262.341 222.858C261.827 221.831 261.641 220.775 261.587 219.655C261.518 218.238 261.601 216.827 262.136 215.481C262.498 214.57 260.894 214.178 260.534 215.081Z" fill="#303030"/>
<path d="M271.48 230.377C268.438 230.299 263.732 231.303 261.387 232.471C259.205 233.558 259.905 236.558 263.519 237.272C267.109 237.981 269.693 236.986 271.288 237.783C272.184 238.231 268.864 246.069 273.611 249.381" stroke="#303030" stroke-width="1.5" stroke-miterlimit="10" stroke-linecap="round" stroke-linejoin="round"/>
<path d="M328.405 189.525C334.512 206.108 354.839 214.933 373.806 209.236C392.774 203.539 403.2 185.477 397.093 168.894C390.987 152.311 370.66 143.486 351.692 149.184C327.617 152.565 310.943 171.289 328.405 189.525Z" fill="#303030"/>
<path d="M371.471 136.641C367.772 136.048 363.481 138.549 361.752 141.971C358.444 148.516 369.668 157.545 378.945 160.139C381.764 160.927 384.725 161.451 387.661 161.182C390.127 160.955 392.657 160.072 394.107 158.258C395.255 156.821 395.591 154.881 394.981 153.196C396.834 153.706 398.919 152.753 399.955 151.274C400.99 149.794 401.123 147.922 400.785 146.198C399.965 142.008 396.892 139.159 393.562 136.464C390.008 133.586 385.365 131.851 380.583 131.726C376.609 131.622 372.136 133.145 371.471 136.641Z" fill="#303030"/>
<path d="M371.838 135.579C369.661 135.411 367.441 135.291 365.323 135.882C363.518 136.386 361.836 137.32 360.587 138.607C358.121 141.15 357.46 144.996 359.398 147.96C360.406 149.503 361.994 150.671 363.878 151.232C364.555 151.434 364.846 150.469 364.172 150.268C359.955 149.012 358.308 144.544 360.131 141.039C361.04 139.291 362.684 137.941 364.635 137.172C366.928 136.269 369.403 136.392 371.838 136.579C372.549 136.634 372.544 135.633 371.838 135.579Z" fill="#303030"/>
<path d="M381.866 146.223C384.04 148.934 386.631 151.452 389.829 153.191C391.956 154.348 394.473 155.215 396.995 155.081C398.862 154.982 400.682 154.293 401.767 152.869C402.914 151.362 402.889 149.399 402.322 147.707C401.253 144.519 398.573 141.888 395.858 139.743C395.323 139.321 394.537 140.025 395.075 140.45C397.397 142.285 399.645 144.426 400.873 147.023C401.572 148.503 401.971 150.329 401.152 151.841C399.306 155.249 394.048 154.124 391.15 152.719C387.775 151.083 385.049 148.494 382.822 145.718C382.408 145.202 381.447 145.7 381.866 146.223Z" fill="#303030"/>
<path d="M402.892 164.73C398.961 161.307 393.704 159.306 388.247 159.148C387.534 159.127 387.535 160.127 388.247 160.148C393.411 160.297 398.391 162.2 402.108 165.437C402.622 165.884 403.406 165.178 402.892 164.73Z" fill="#303030"/>
<path d="M403.276 160.38C398.547 158.448 393.311 157.716 388.16 158.329C387.464 158.412 387.455 159.413 388.16 159.329C393.107 158.74 398.166 159.384 402.717 161.244C403.362 161.507 403.925 160.646 403.276 160.38Z" fill="#303030"/>
<path d="M325.035 188.918C324.7 185.958 325.083 180.223 327.709 173.261C329.544 168.392 334.285 158.958 347.334 156.778C351.839 164.721 358.205 165.116 366.952 169.235C373.396 172.269 375.377 180.872 375.377 180.872C374.853 183.875 379.653 191.421 379.653 191.421C382.018 192.936 384.192 200.326 386.899 208.687C387.871 211.691 390.157 215.324 392.794 217.356L398.379 221.659C398.379 221.659 387.467 251.677 353.432 244.058C331.828 239.222 346.12 218.786 346.12 218.786L357.648 218.191L358.166 213.992C343.412 215.687 327.404 209.885 325.035 188.918Z" fill="#FFCCCC"/>
<path d="M337.216 171.22C335.116 170.619 330.197 170.693 327.353 172.33" stroke="#303030" stroke-width="1.5" stroke-miterlimit="10" stroke-linecap="round" stroke-linejoin="round"/>
<path d="M349.545 180.309C350.979 179.923 352.664 179.949 354.104 180.306C355.596 180.676 357.118 181.355 358.315 182.409C358.783 182.821 359.656 183.528 359.224 184.246C358.703 185.109 357.948 185.543 357.134 185.971C355.876 186.631 354.437 186.748 353.331 186.785C351.299 186.852 349.226 186.282 347.48 185.146C345.258 183.699 348.064 180.718 349.545 180.309Z" fill="#FF95FB"/>
<path d="M346.73 184.692C349.373 187.061 354.929 188.482 359.426 184.685" stroke="#303030" stroke-width="1.5" stroke-miterlimit="10" stroke-linecap="round" stroke-linejoin="round"/>
<path d="M337.356 180.578C337.073 179.544 336.191 178.72 335.206 178.135C333.027 176.841 329.961 176.576 327.859 177.97C327.341 178.314 326.881 178.767 326.703 179.324C326.445 180.131 326.836 181.022 327.494 181.616C328.152 182.21 329.035 182.551 329.922 182.803C331.703 183.308 333.77 183.605 335.634 183.37C337.024 183.194 337.671 181.726 337.356 180.578Z" fill="#FF95FB"/>
<path d="M326.382 180.573C328.274 183.189 332.882 184.552 337.258 183.129" stroke="#303030" stroke-width="1.5" stroke-miterlimit="10" stroke-linecap="round" stroke-linejoin="round"/>
<path d="M377.227 204.096C377.304 210.013 365.808 215.951 357.645 218.191L358.163 213.992C364.701 212.751 371.796 209.783 377.227 204.096Z" fill="#303030"/>
<path d="M339.863 192.662C337.395 192.58 334.936 191.582 334.464 190.138C334.117 189.077 334.699 187.968 335.264 186.986C336.189 185.379 337.006 183.877 337.59 182.142C338.354 179.868 338.89 177.537 339.338 175.197" stroke="#303030" stroke-width="1.5" stroke-miterlimit="10" stroke-linecap="round" stroke-linejoin="round"/>
<path d="M349.84 172.69C355.62 171.713 361.382 173.725 364.154 176.38" stroke="#303030" stroke-width="1.5" stroke-miterlimit="10" stroke-linecap="round" stroke-linejoin="round"/>
<path d="M373.89 183.835C375.244 180.222 378.034 176.816 382.038 175.282C386.042 173.748 391.273 174.558 393.602 177.681C395.905 180.769 394.75 185.238 391.709 187.935C388.667 190.632 383.725 192.245 378.463 191.526" fill="#FFCCCC"/>
<path d="M373.89 183.835C375.244 180.222 378.034 176.816 382.038 175.282C386.042 173.748 391.273 174.558 393.602 177.681C395.905 180.769 394.75 185.238 391.709 187.935C388.667 190.632 383.725 192.245 378.463 191.526" stroke="#303030" stroke-width="1.5" stroke-miterlimit="10" stroke-linecap="round" stroke-linejoin="round"/>
<path d="M389.74 180.178C387.388 179.365 384.531 179.691 382.434 181.013C380.338 182.335 379.07 184.607 379.193 186.826" stroke="#303030" stroke-width="1.5" stroke-miterlimit="10" stroke-linecap="round" stroke-linejoin="round"/>
<path d="M386.109 183.683C385.108 183.267 383.937 183.221 382.826 183.383C381.716 183.544 380.642 183.958 379.673 184.396" stroke="#303030" stroke-width="1.5" stroke-miterlimit="10" stroke-linecap="round" stroke-linejoin="round"/>
<path d="M338.229 200.014C341.941 200.888 346.051 200.288 349.269 198.403" stroke="#303030" stroke-width="1.5" stroke-miterlimit="10" stroke-linecap="round" stroke-linejoin="round"/>
<path d="M338.585 227.17C354.619 242.308 367.885 243.368 390.392 241.534C390.146 240.252 394.044 232.153 401.99 226.16L414.159 232.146C414.159 232.146 424.401 245.92 421.655 259.855C418.908 273.789 413.638 316.227 420.767 328.389C381.368 348.521 337.377 334.543 318.882 312.641C323.378 297.893 325.526 291.721 323.85 269.023C322.176 246.324 330.139 238.609 338.585 227.17Z" fill="#FF95FB"/>
<path d="M428.196 302.777C429.504 275.041 436.662 251.295 421.769 234.614C421.769 234.614 415.349 230.744 393.336 217.774C384.589 229.913 375.157 245.698 370.248 269.222C365.727 290.877 365.474 318.564 363.365 367.766C386.6 371.583 422.847 371.461 434.599 354.606C433.873 326.88 427.522 317.027 428.196 302.777Z" fill="#00826F"/>
<path d="M335.597 255.835C339.996 237.704 352.753 226.356 357.646 218.191L358.164 213.992C354.45 214.421 350.853 214.354 347.372 213.784C334.426 219.987 320.186 242.983 319.696 260.144C319.252 275.723 325.441 298.219 314.341 308.148C319.172 315.816 331.157 316.725 331.157 316.725C335.086 291.833 331.737 271.741 335.597 255.835Z" fill="#00826F"/>
<path d="M333.739 225.246C327.191 234.356 321.981 243.558 320.28 253.834C317.246 272.167 327.051 296.694 314.342 308.149" stroke="#303030" stroke-width="1.5" stroke-miterlimit="10" stroke-linecap="round" stroke-linejoin="round"/>
<path d="M358.376 217.98C354.023 234.095 378.158 235.685 390.597 215.218" stroke="#303030" stroke-width="1.5" stroke-miterlimit="10" stroke-linecap="round" stroke-linejoin="round"/>
<path d="M393.337 217.774C380.379 236.366 369.043 258.103 352.762 252.331C336.908 246.71 353.065 223.238 358.886 216.017" stroke="#303030" stroke-width="1.5" stroke-miterlimit="10" stroke-linecap="round" stroke-linejoin="round"/>
<path d="M220.354 233.528C220.354 233.528 260.383 253.52 271.256 260.977L261.241 269.572L241.069 255.306C241.069 255.306 239.347 253.371 236.319 249.435C233.291 245.497 224.304 235.951 220.354 233.528Z" fill="#303030" stroke="#303030" stroke-width="1.5" stroke-miterlimit="10" stroke-linecap="round" stroke-linejoin="round"/>
<path d="M293.584 257.101C278.66 254.002 262.664 254.36 246.12 256.482C243.504 256.818 240.883 255.754 239.49 253.726C233.405 244.87 225.233 237.124 220.355 233.527" stroke="#F55571" stroke-width="1.5" stroke-miterlimit="10" stroke-linecap="round" stroke-linejoin="round"/>
<path d="M225.352 229.004C235.129 231.072 252.816 244.612 255.819 249.257L242.77 248.4L225.352 229.004Z" fill="white" stroke="#303030" stroke-width="2" stroke-miterlimit="10" stroke-linecap="round" stroke-linejoin="round"/>
<path d="M241.408 251.117L242.77 248.399C240.213 244.09 229.252 230.371 225.352 229.004L225.19 230.999L223.21 230.768L222.48 231.826C222.48 231.826 229.003 236.275 241.408 251.117Z" fill="white" stroke="#303030" stroke-width="2" stroke-miterlimit="10" stroke-linecap="round" stroke-linejoin="round"/>
<path d="M241.408 251.117L242.77 248.399C253.499 247.065 280.79 248.696 284.773 249.695L294.63 260.835L290.101 262.78L281.748 254.243C271.144 252.416 257.034 251.557 241.408 251.117Z" fill="white" stroke="#303030" stroke-width="2" stroke-miterlimit="10" stroke-linecap="round" stroke-linejoin="round"/>
<path d="M241.408 251.117L262.002 264.968L290.101 262.78L281.748 254.243L241.408 251.117Z" fill="white" stroke="#303030" stroke-width="2" stroke-miterlimit="10" stroke-linecap="round" stroke-linejoin="round"/>
<path d="M349.136 297.571L294.589 293.154L241.07 255.304C242.48 256.269 244.309 256.719 246.116 256.485C262.663 254.358 278.662 253.997 293.586 257.101L349.136 297.571Z" fill="#F55571" stroke="#F55571" stroke-width="1.5" stroke-miterlimit="10" stroke-linecap="round" stroke-linejoin="round"/>
<path d="M329.993 322.695C329.993 322.695 365.906 327.702 384.106 330.465C401.215 333.062 405.117 326.666 410.835 316.584C420.161 300.137 425.399 289.973 431.033 272.83C436.341 256.685 431.52 244.918 422.015 236.693C410.025 241.163 405.281 247.987 400.405 258.778C396.125 268.253 381.66 302.097 381.66 302.097C381.66 302.097 354.993 303.294 339.593 302.28C335.116 301.985 333.923 301.186 331.958 299.775C328.557 297.331 327.102 296.533 327.102 296.533L318.241 295.802C312.551 295.161 302.08 292.01 295.727 289.27C289.925 286.767 286.257 290.526 289.64 293.652C290.418 294.372 291.616 295.341 291.616 295.341C291.616 295.341 289.883 298.422 294.648 301.622C299.411 304.822 301.68 306.415 301.68 306.415C301.68 306.415 301.659 309.506 304.509 312.374C306.42 314.933 311.436 315.881 313.342 317.491C315.584 320.835 320.687 321.425 329.993 322.695Z" fill="#FFCCCC"/>
<path d="M300.304 307.073C303.401 308.785 306.585 310.36 309.964 311.572C310.381 311.722 310.876 311.408 310.986 311.048C311.115 310.621 310.824 310.276 310.405 310.125C307.166 308.963 304.111 307.418 301.142 305.777C300.228 305.273 299.392 306.57 300.304 307.073Z" fill="#303030"/>
<path d="M309.075 294.685C313.755 296.184 318.638 297.24 323.469 298.257C324.509 298.476 324.953 297.03 323.911 296.811C319.08 295.794 314.198 294.738 309.517 293.239C308.507 292.916 308.073 294.364 309.075 294.685Z" fill="#303030"/>
<path d="M291.198 295.99C294.797 297.976 298.441 299.907 302.228 301.59C305.769 303.163 309.43 304.496 313.145 305.695C314.153 306.02 314.588 304.572 313.587 304.249C309.939 303.072 306.351 301.764 302.878 300.211C299.158 298.548 295.576 296.649 292.036 294.695C291.121 294.19 290.285 295.487 291.198 295.99Z" fill="#303030"/>
<path d="M421.769 234.619C431.163 241.75 437.42 250.911 434.498 264.305C431.575 277.698 425.246 304.222 420.852 319.356C403.592 318.219 387.498 315.04 378.126 301.119C378.126 301.119 385.637 277.732 391.493 261C393.551 255.118 395.91 250.439 398.527 246.757C404.919 237.767 412.86 234.721 421.769 234.619Z" fill="#00826F"/>
<path d="M434.498 264.304C431.575 277.697 425.246 304.221 420.852 319.355C403.592 318.218 387.498 315.039 378.126 301.118C378.126 301.118 385.637 277.731 391.493 260.999C393.551 255.117 395.91 250.438 398.527 246.756" stroke="#303030" stroke-width="1.5" stroke-miterlimit="10" stroke-linecap="round" stroke-linejoin="round"/>
<path d="M157.351 200.41C162.165 199.532 166.47 197.199 170.818 195.136C182.443 189.621 195.359 185.78 208.482 186.165C218.872 186.469 229.394 189.699 237.204 195.76C238.231 196.558 239.708 195.377 238.969 194.35C234.078 187.558 226.555 181.999 218.524 178.76C200.787 171.606 178.852 169.765 160.199 175.598C153.799 177.599 145.438 181.988 143.317 188.437C140.462 197.119 148.85 201.959 157.351 200.41Z" fill="#00826F"/>
<path d="M276.6 147.837C284.613 148.048 287.726 155.943 284.173 160.42C281.857 163.338 277.553 164.517 273.971 165.573C269.765 166.814 265.261 169.136 261.828 171.745C258.264 174.455 255.925 178.407 255.27 182.566C255.126 183.481 253.716 183.591 253.439 182.701C250.374 172.896 254.776 161.669 262.303 154.316C266.037 150.67 271.103 147.692 276.6 147.837Z" fill="#00826F"/>
<path d="M157.908 147.832C157.591 156.009 149.271 162.65 141.526 162.627C132.478 162.6 125.144 156.003 125.144 147.832C125.144 139.661 132.478 133.037 141.526 133.037C150.573 133.037 158.223 139.666 157.908 147.832Z" fill="#FF95FB"/>
<path d="M258.451 134.926C258.902 138.649 255.924 141.997 251.802 142.404C247.68 142.811 243.972 140.122 243.522 136.399C243.071 132.676 246.049 129.328 250.171 128.921C254.293 128.514 258.002 131.202 258.451 134.926Z" fill="#F55571"/>
<path d="M108.981 170.652L106.535 172.529L103.551 171.46C102.731 171.166 101.923 171.905 102.259 172.642L103.48 175.323L101.433 177.555C100.87 178.168 101.398 179.091 102.277 179.03L105.479 178.81L107.197 181.259C107.669 181.932 108.804 181.763 109.012 180.989L109.769 178.172L112.878 177.453C113.732 177.255 113.905 176.229 113.155 175.811L110.422 174.29L110.626 171.397C110.68 170.602 109.653 170.137 108.981 170.652Z" fill="#F55571"/>
<path d="M250.305 89.493L247.859 91.37L244.875 90.301C244.056 90.008 243.247 90.747 243.583 91.483L244.804 94.164L242.757 96.397C242.194 97.01 242.722 97.933 243.602 97.872L246.803 97.652L248.521 100.101C248.993 100.773 250.128 100.604 250.336 99.831L251.093 97.014L254.203 96.295C255.056 96.097 255.229 95.071 254.478 94.653L251.746 93.132L251.949 90.239C252.005 89.443 250.977 88.978 250.305 89.493Z" fill="#00826F"/>
<path d="M203.181 211.436L200.735 213.313L197.751 212.244C196.931 211.95 196.123 212.689 196.458 213.426L197.68 216.107L195.632 218.34C195.07 218.953 195.598 219.876 196.477 219.815L199.678 219.595L201.397 222.044C201.869 222.716 203.003 222.547 203.212 221.774L203.969 218.957L207.078 218.238C207.932 218.041 208.105 217.014 207.354 216.596L204.621 215.075L204.825 212.182C204.88 211.386 203.853 210.921 203.181 211.436Z" fill="#FF95FB"/>
<path d="M244.703 188.103C236.183 171.166 225.127 154.19 207.666 143.617C194.35 135.553 174.281 131.599 162.475 132.844C148.534 134.314 142.182 139.134 139.987 147.832C138.827 152.425 140.1 157.624 143.881 160.869C147.662 164.114 154.514 165.622 159.534 164.343C164.554 163.064 168.69 159.273 170.036 154.722C174.363 140.073 160.443 128.427 146.691 124.001C129.759 118.551 108.92 123.22 100.246 141.12" stroke="#303030" stroke-width="1.5" stroke-miterlimit="10" stroke-linecap="round" stroke-linejoin="round"/>
<path d="M98.7884 145.202C99.8569 145.202 99.8591 143.702 98.7884 143.702C97.7199 143.702 97.7188 145.202 98.7884 145.202Z" fill="#303030"/>
<path d="M245.912 174.961C239.409 156.084 245.94 134.397 265.375 125.467C270.231 123.235 277.117 122.798 280.792 127.78C282.493 130.085 282.762 133.803 281.199 136.139C278.97 139.468 274.802 140.423 271.548 139.72C264.292 138.153 261.933 130.487 264.862 122.885C266.618 118.326 271.88 112.239 280.936 111.532" stroke="#303030" stroke-width="1.5" stroke-miterlimit="10" stroke-linecap="round" stroke-linejoin="round"/>
<path d="M285.629 112.282C286.698 112.282 286.7 110.782 285.629 110.782C284.559 110.782 284.558 112.282 285.629 112.282Z" fill="#303030"/>
<path d="M222.496 120.335C224.173 122.87 223.258 126.153 220.452 127.668C217.645 129.183 214.01 128.356 212.333 125.821C210.656 123.286 211.572 120.004 214.377 118.489C217.184 116.974 220.819 117.8 222.496 120.335Z" fill="#303030"/>
<path d="M214.525 81.536C208.121 71.86 193.738 69.148 183.503 76.156C175.451 81.67 172.897 91.84 177.48 99.973C180.619 105.544 186.27 109.075 192.47 110.123C195.949 110.711 199.153 112.222 201.552 114.573L204.607 117.569L218.035 110.321L216.562 106.479C215.39 103.422 215.488 100.128 216.556 97.041C218.288 92.029 217.742 86.398 214.525 81.536Z" fill="white" stroke="#303030" stroke-width="1.5" stroke-miterlimit="10" stroke-linecap="round" stroke-linejoin="round"/>
<path d="M211.827 120.022C211.827 120.022 206.695 111.555 200.658 104.348C193.316 95.584 188.133 98.587 188.3 100.952C188.466 103.318 194.857 104.244 198.186 97.845C201.515 91.446 197.497 87.359 194.755 88.839C192.014 90.319 194.097 95.45 201.913 95.833C209.73 96.216 211.854 90.694 209.625 89.441C207.397 88.188 202.014 90.888 207.084 100.88C211.251 109.095 217.079 117.187 217.079 117.187" stroke="#303030" stroke-width="1.5" stroke-miterlimit="10" stroke-linecap="round" stroke-linejoin="round"/>
<path d="M224.136 113.682C223.583 112.623 222.227 112.232 221.116 112.831C222.227 112.232 222.661 110.853 222.074 109.727C221.474 108.575 220.037 108.127 218.877 108.753L202.675 117.499C201.515 118.125 201.271 119.48 202.11 120.503C202.929 121.502 204.481 121.81 205.591 121.21C204.481 121.809 204.219 123.074 204.99 124.014C205.744 124.934 207.207 125.198 208.273 124.622C207.207 125.197 206.931 126.381 207.643 127.249C208.339 128.098 209.723 128.324 210.748 127.771L225.07 120.04C226.094 119.487 226.53 118.279 226.031 117.323C225.522 116.346 224.238 116.005 223.172 116.58C224.24 116.006 224.675 114.718 224.136 113.682Z" fill="#00826F"/>
<path d="M205.593 121.211L221.117 112.832" stroke="#303030" stroke-width="1.5" stroke-miterlimit="10" stroke-linecap="round" stroke-linejoin="round"/>
<path d="M208.276 124.623L223.175 116.582" stroke="#303030" stroke-width="1.5" stroke-miterlimit="10" stroke-linecap="round" stroke-linejoin="round"/>
</svg>
